<svg xmlns="http://www.w3.org/2000/svg" version="1.1" xmlns:xlink="http://www.w3.org/1999/xlink" xmlns:svgjs="http://svgjs.com/svgjs" width="512" height="512"><svg width="512" height="512" xmlns="http://www.w3.org/2000/svg" style="background-color:black">
 <g>
  <title>Layer 1</title>
  <path fill="#00FF41" id="SvgjsPath1001" d="m193.91667,49.01l-102.33334,0c-14.1268,0 -25.58333,10.52359 -25.58333,23.5l0,282c0,12.97641 11.45654,23.5 25.58333,23.5l102.33334,-0.00536c98.73568,0 179.08334,-73.80469 179.08334,-164.5s-80.34766,-164.49464 -179.08334,-164.49464zm0,281.99266l-76.75,0l0,-235l76.75,0c70.53005,0 127.91667,52.71344 127.91667,116.83906s-57.40261,118.16094 -127.91667,118.16094z"></path>
  <path fill="#00FF41" id="SvgjsPath1000" d="m283.91667,125.01l-102.33334,0c-14.12679,0 -25.58333,10.52359 -25.58333,23.5l0,282c0,12.97641 11.45654,23.5 25.58333,23.5l102.33334,-0.00536c98.73568,0 179.08334,-73.80469 179.08334,-164.5s-80.34766,-164.49464 -179.08334,-164.49464zm0,281.99266l-76.75,0l0,-235l76.75,0c70.53005,0 127.91667,52.71343 127.91667,116.83906s-57.40261,118.16094 -127.91667,118.16094z"></path>
 </g>
</svg><style>@media (prefers-color-scheme: light) { :root { filter: none; } }
</style></svg>