<?xml version="1.0" ?><svg height="24" id="svg8" version="1.1" viewBox="0 0 24 24" width="24" xmlns="http://www.w3.org/2000/svg" xmlns:cc="http://creativecommons.org/ns#" xmlns:dc="http://purl.org/dc/elements/1.1/" xmlns:rdf="http://www.w3.org/1999/02/22-rdf-syntax-ns#" xmlns:svg="http://www.w3.org/2000/svg"><defs id="defs2"/><g id="g1818" style="display:inline" transform="translate(0,-290.65029)"><path d="m 5,292.65 c -1.6447,0 -3,1.3553 -3,3 v 10 c 0,1.6447 1.3553,3 3,3 h 3.5 l 2.69922,3.59961 a 1.0001,1.0001 0 0 0 1.60156,0 L 15.5,308.65 H 19 c 1.6447,0 3,-1.3553 3,-3 v -10 c 0,-1.6447 -1.3553,-3 -3,-3 z m 0,2 h 14 c 0.5713,0 1,0.4287 1,1 v 10 c 0,0.5713 -0.4287,1 -1,1 h -4 a 1.0001,1.0001 0 0 0 -0.80078,0.40039 L 12,309.98203 9.80078,307.05039 A 1.0001,1.0001 0 0 0 9,306.65 H 5 c -0.5713,0 -1,-0.4287 -1,-1 v -10 c 0,-0.5713 0.4287,-1 1,-1 z" id="rect1799" style="color:#00FF41;font-style:normal;font-variant:normal;font-weight:normal;font-stretch:normal;font-size:medium;line-height:normal;font-family:sans-serif;font-variant-ligatures:normal;font-variant-position:normal;font-variant-caps:normal;font-variant-numeric:normal;font-variant-alternates:normal;font-variant-east-asian:normal;font-feature-settings:normal;font-variation-settings:normal;text-indent:0;text-align:start;text-decoration:none;text-decoration-line:none;text-decoration-style:solid;text-decoration-color:#00FF41;letter-spacing:normal;word-spacing:normal;text-transform:none;writing-mode:lr-tb;direction:ltr;text-orientation:mixed;dominant-baseline:auto;baseline-shift:baseline;text-anchor:start;white-space:normal;shape-padding:0;shape-margin:0;inline-size:0;clip-rule:nonzero;display:inline;overflow:visible;visibility:visible;opacity:1;isolation:auto;mix-blend-mode:normal;color-interpolation:sRGB;color-interpolation-filters:linearRGB;solid-color:#00FF41;solid-opacity:1;vector-effect:none;fill:#00FF41;fill-opacity:1;fill-rule:nonzero;stroke:none;stroke-linecap:round;stroke-linejoin:round;stroke-miterlimit:4;stroke-dasharray:none;stroke-dashoffset:0;stroke-opacity:1;color-rendering:auto;image-rendering:auto;shape-rendering:auto;text-rendering:auto;enable-background:accumulate;stop-color:#00FF41;stop-opacity:1"/><path d="m 9,300.64999 a 0.99999392,0.99999392 0 0 1 -0.99999,1 0.99999392,0.99999392 0 0 1 -1,-1 0.99999392,0.99999392 0 0 1 1,-0.99999 A 0.99999392,0.99999392 0 0 1 9,300.64999 Z" id="path1806" style="fill:#00FF41;fill-opacity:1;stroke:none;stroke-width:1;stroke-linecap:round;stroke-linejoin:round;stroke-miterlimit:4;stroke-dasharray:none;stroke-opacity:1;opacity:1"/><path d="m 13,300.64999 a 0.99999392,0.99999392 0 0 1 -0.99999,1 0.99999392,0.99999392 0 0 1 -1,-1 0.99999392,0.99999392 0 0 1 1,-0.99999 A 0.99999392,0.99999392 0 0 1 13,300.64999 Z" id="circle1808" style="fill:#00FF41;fill-opacity:1;stroke:none;stroke-width:1;stroke-linecap:round;stroke-linejoin:round;stroke-miterlimit:4;stroke-dasharray:none;stroke-opacity:1;opacity:1"/><path d="m 17.00001,300.64999 a 0.99999392,0.99999392 0 0 1 -1,1 0.99999392,0.99999392 0 0 1 -0.99999,-1 0.99999392,0.99999392 0 0 1 0.99999,-0.99999 0.99999392,0.99999392 0 0 1 1,0.99999 z" id="circle1810" style="fill:#00FF41;fill-opacity:1;stroke:none;stroke-width:1;stroke-linecap:round;stroke-linejoin:round;stroke-miterlimit:4;stroke-dasharray:none;stroke-opacity:1;opacity:1"/></g></svg>